PathFileType	4	(X/Y/Z)	Patient4_TMGait_0pt5_02_right_38.trc.trc
DataRate	CameraRate	NumFrames	NumMarkers	Units	OrigDataRate	OrigDataStartFrame	OrigNumFrames
76.086956521739	76.086956521739	5	33	mm	76.086956521739	124	       141
Frame#	Time	Sacral			L.Shoulder			Chest			R.Shoulder			Neck			R.ASIS			L.ASIS			R.Thigh.Superior			R.Thigh.Lateral			R.Thigh.Inferior			R.Patella			L.Thigh.Superior			L.Thigh.Lateral			L.Thigh.Inferior			L.Patella			L.Shank.Superior			L.Shank.Lateral			L.Shank.Inferior			R.Shank.Superior			R.Shank.Lateral			R.Shank.Inferior			R.Heel			R.Midfoot.Superior			R.Midfoot.Lateral			R.Toe			L.Heel			L.Midfoot.Lateral			L.Midfoot.Superior			L.Toe			L.Elbow			L.Wrist			R.Elbow			R.Wrist			
		X1	Y1	Z1	X2	Y2	Z2	X3	Y3	Z3	X4	Y4	Z4	X5	Y5	Z5	X6	Y6	Z6	X7	Y7	Z7	X8	Y8	Z8	X9	Y9	Z9	X10	Y10	Z10	X11	Y11	Z11	X12	Y12	Z12	X13	Y13	Z13	X14	Y14	Z14	X15	Y15	Z15	X16	Y16	Z16	X17	Y17	Z17	X18	Y18	Z18	X19	Y19	Z19	X20	Y20	Z20	X21	Y21	Z21	X22	Y22	Z22	X23	Y23	Z23	X24	Y24	Z24	X25	Y25	Z25	X26	Y26	Z26	X27	Y27	Z27	X28	Y28	Z28	X29	Y29	Z29	X30	Y30	Z30	X31	Y31	Z31	X32	Y32	Z32	X33	Y33	Z33	

124	51.256571428571	721.184384691230	1005.122501446185	434.589519501464	937.715633156039	1421.729314757766	266.681235386618	1010.976052076034	1355.053605447226	443.718852659244	903.007888982878	1437.822511414216	600.082767069210	915.880770249741	1487.836476568246	414.129377075620	929.300226331121	938.949603762091	582.561322918943	951.915890556128	950.615656981101	307.995937962109	993.379723452328	752.407469369103	562.339069333434	925.907563168764	635.086226842543	621.823783050669	1016.530882651847	591.652069475787	548.562480328002	1037.109044564861	511.094164876016	559.138561396416	958.493793466615	727.365147494973	343.413490142516	855.528646168466	628.418270545341	269.970740198729	909.933439938330	538.139294743376	343.590929323932	894.284341723243	468.997296225679	352.855956103066	859.961662039056	402.230275591153	340.614579607965	760.345516050628	301.133231221112	279.992714824649	784.173954129394	185.136429486703	355.871864445473	1025.490146576126	422.364400464415	568.540809767013	972.422958421398	307.712443402681	628.253150006260	1043.619972896232	223.605484473385	577.020805283186	950.718927550427	43.372676075546	546.210841105000	1115.460344402820	107.933674849711	583.781482421699	1035.115798275592	38.257478931490	619.569869668225	1239.437735690852	65.843768146389	609.178192724818	637.752099657470	38.221982599332	387.548294946215	715.118582907829	34.673686278183	310.404878637303	797.454635399018	94.730081963054	341.989009835349	926.840746667480	42.217439022652	318.079729489569	1007.161080322565	1091.449331548051	118.440737381116	1255.763531445680	1020.733437772739	137.254207310616	727.787394580711	1144.942142800676	705.233839532306	667.698264117270	892.251148805742	730.632044656821	
125	51.269714285714	723.111830429722	1004.047639344100	437.018403113326	937.760232245805	1421.593864157650	269.942871141814	1011.460993473257	1355.010352211787	446.873805177183	902.876028306947	1436.710341550067	603.452576699700	915.586392706343	1487.325492977343	417.591778787191	931.563113030389	937.882979793715	584.777101585583	953.890766604445	950.060450755619	310.429338190703	995.718325747977	750.931120259689	564.137394159939	926.189987303750	633.545815098597	621.916059275031	1017.261080367976	590.373956206383	549.308535186730	1035.989064862370	508.895189519264	558.790373137336	959.216304366300	726.006386181959	344.712213663237	854.652868881902	627.851569436997	271.791549909711	908.706109253020	536.988823851031	344.911968039618	892.755672563276	467.512617299267	354.101993669613	857.282634577924	401.298737750203	341.785293997465	756.214633583935	301.679741073028	280.930921813791	778.777850875065	184.977008447864	356.189667801772	1023.632822857924	419.632508057705	567.865156869255	968.619612851867	305.595157770865	627.068349020370	1038.031759174154	220.526095748262	575.395619666925	941.304289431311	42.753920103912	544.599156417367	1107.215991434155	104.855472244775	581.876541889513	1025.335878668066	37.361035163177	618.450977468637	1230.423807854708	60.618859210206	608.058519801297	631.045123255117	38.747156433906	387.360864789848	708.544603419573	34.839107249269	310.414276695053	791.086532163708	94.771106597107	341.935964229251	920.369071404147	41.795665654664	318.035299063469	1005.827161223068	1090.655540511371	121.562932295187	1254.221527734929	1019.258578141031	140.675091686750	731.479448238530	1140.673335357690	707.495121816907	676.453399127582	886.383298007245	731.136189713834	
126	51.282857142857	724.917938229038	1003.269112561503	439.537008062341	937.931990175628	1421.656795200873	273.298239630055	1012.049760117064	1355.103123847326	450.114527359019	902.917493290292	1435.764111554905	606.930033000199	915.483721641386	1487.021976327951	421.165366996623	933.820321611944	937.106979522544	587.009948874370	955.653846612815	949.714464895587	312.893805757710	998.156477254447	749.840421922348	565.631419995238	927.052346673429	632.537229172060	622.151047428764	1018.220606723592	589.502799918366	549.804799547541	1035.253379124764	507.060243623291	558.373718025206	960.118613926843	724.931243582144	345.994354796232	854.213513087260	627.329950914976	273.759257257151	908.318984905513	535.963219967592	346.313265175022	892.262202898115	465.962599386911	355.314192807480	855.349584378215	400.356942201519	342.987287481645	752.587582338966	302.509996730044	281.944175587659	773.717350003524	185.015316381797	356.447106302325	1022.150231698215	417.379205108965	567.257500103018	965.476681635973	304.031184416796	626.372647937344	1032.837587262234	217.921625053170	573.987919118302	932.227657642690	42.356382784170	543.545595747526	1099.250518406577	102.342866446925	580.236984938778	1016.049217998555	36.778912122144	617.714470995112	1221.822363947320	56.206299266207	606.990608789713	624.377635368366	39.803630684207	387.123392986560	702.007814383689	35.241635770438	310.401857485251	784.904643782969	94.894241381756	341.789686574154	913.928725456622	41.319609524390	317.974871683605	1004.152206172598	1089.804104008847	125.003579316219	1252.120397327562	1016.717844430692	144.183919943136	735.879722050361	1136.215592794442	709.899670969408	686.715693156543	880.242150360101	731.859602480497	
127	51.296000000000	726.555139150953	1002.834734839920	442.136424658027	938.251839603306	1421.959909418446	276.723304057557	1012.734230948430	1355.345011289156	453.409738200239	903.163093954005	1435.039291518108	610.484471490083	915.603309783720	1486.962519472251	424.823022557207	936.002138092887	936.672684597651	589.258981473725	957.137378768726	949.620842729248	315.366934407270	1000.546278312056	749.156043226036	566.815595571527	928.396493754150	632.070448266845	622.588277466633	1019.257686118194	589.024014301607	550.072433820827	1034.784074779271	505.625424900065	557.966186518311	961.247446641990	724.220155013279	347.322047476696	854.408875899734	626.853360687655	275.863992865427	909.019638511623	535.094848157435	347.800332011193	893.067833019536	464.357316938642	356.451298782904	854.391524316936	399.410013837849	344.193313880351	749.666973861866	303.690210074361	283.021546173700	769.137239260004	185.318652555235	356.620656218333	1020.944021061844	415.648835758771	566.784323045007	962.947474989677	303.028072715804	626.189821964599	1028.089834782432	215.868278894568	572.857947122801	923.766465148557	42.148841419070	542.985746648368	1091.755578891390	100.463786947157	578.943020477773	1007.500830730679	36.469592500151	617.322204700694	1213.841881907099	52.762679633104	606.076523016422	617.821277308369	41.602153080987	386.838711063968	695.547268566939	35.999377553135	310.364758109089	778.999192283237	95.130521865430	341.530030191341	907.520984255087	40.796795473772	317.903305239529	1002.132944564998	1088.960819217185	128.762216750752	1249.411854101245	1013.131785695063	147.776992713230	740.961161279071	1131.702418437998	712.426276558663	698.443079002188	874.041772830791	732.815559070615	
128	51.309142857143	727.992721414230	1002.756649255683	444.823052588753	938.713541151591	1422.521862129285	280.192100128616	1013.494108572956	1355.736644154135	456.724605245619	903.627098544466	1434.573184382994	614.082400996706	915.946832752310	1487.160667447577	428.533068388974	938.057681409924	936.600810393640	591.528351735769	958.292513211251	949.801092242872	317.828532233673	1002.757790160214	748.860627764207	567.726260970443	930.070498641275	632.098811255887	623.261206105026	1020.224954825702	588.878576773540	550.176027516239	1034.433396946760	504.572066658093	557.648320722447	962.655115491558	723.932854392479	348.754640402865	855.429156814126	626.418867864724	278.078861632062	911.029190704198	534.413016015196	349.357785692264	895.394797577826	462.720266275717	357.460056157003	854.622393059501	398.472247669721	345.362603580094	747.654788610382	305.285677104253	284.143863470223	765.192884977183	185.962112604219	356.686525070137	1019.865639637565	414.416728183039	566.493194786951	960.865785024961	302.531094566228	626.476218712489	1023.721350474091	214.364520826031	572.029923706448	916.007447419797	42.091932291176	542.821201024742	1084.772367452070	99.199441459064	578.023759436453	999.740165619221	36.371790488542	617.210224474209	1206.519644116325	50.288500510382	605.377971500836	611.477378128788	44.363927179795	386.514640936342	689.219500477856	37.250549334961	310.302597270914	773.472377535705	95.519046744826	341.141832742173	901.145285406209	40.241731499567	317.827888555738	999.768611685723	1088.185103878549	132.829509643309	1246.033552064423	1008.528003255288	151.451937743664	746.688734176246	1127.254489800192	715.064003294735	711.613366809076	867.996029086277	734.011759766031	
